#!OML:ASF F:\VICON\USERDATA\INSTALL\rory3\rory3.ASF
:FULLY-SPECIFIED
:DEGREES
201
root -0.67567 18.3041 19.3671 -157.536 -12.3068 -181.39
lowerback -8.95792 -1.43995 -0.319672
upperback -10.0459 -3.14299 0.91786
thorax -5.42672 -2.06284 1.05918
lowerneck -16.8899 0.85994 -2.00634
upperneck 39.7227 -3.08896 1.64214
head 17.5228 -2.78008 0.0524032
rclavicle -3.88997e-014 1.11319e-014
rhumerus -84.7602 -82.9182 56.3672
rradius 11.9881
rwrist 109.237
rhand -7.30606 7.90079
rfingers 7.12502
rthumb 18.5764 -21.2322
lclavicle -3.88997e-014 1.11319e-014
lhumerus 33.933 -30.8727 26.3424
lradius 21.2092
lwrist -41.2066
lhand -1.84794 24.2527
lfingers 7.12502
lthumb 23.8192 52.796
rfemur -52.8161 1.72655 20.4108
rtibia 48.2626
rfoot 14.04 -27.9357
rtoes 18.3824
lfemur -18.9098 -2.69184 -25.0596
ltibia 33.3594
lfoot -20.8085 22.6707
ltoes -1.15685
202
root -0.664591 18.3697 19.2534 -157.432 -12.5747 -181.473
lowerback -8.7294 -1.40203 -0.244073
upperback -9.83209 -3.03554 0.916091
thorax -5.32613 -1.98897 1.01965
lowerneck -17.3711 0.868325 -1.83071
upperneck 40.2223 -3.06779 1.26338
head 17.9228 -2.80706 -0.16934
rclavicle -3.82971e-014 -6.55989e-015
rhumerus -66.6986 -81.6935 38.8375
rradius 11.8593
rwrist 105.851
rhand -6.87436 7.88284
rfingers 7.12502
rthumb 18.9916 -21.21
lclavicle -3.82971e-014 -6.55989e-015
lhumerus 33.7888 -31.0314 25.5912
lradius 21.3521
lwrist -40.6991
lhand -0.953585 24.716
lfingers 7.12502
lthumb 24.6767 53.1449
rfemur -53.1329 1.26989 20.5566
rtibia 48.5742
rfoot 15.2423 -28.8505
rtoes 22.6215
lfemur -20.2149 -2.87584 -25.2382
ltibia 33.9047
lfoot -20.3266 21.2505
ltoes 0.930327
203
root -0.651006 18.4216 19.1466 -157.196 -12.9045 -181.371
lowerback -8.4507 -1.36027 0.00223378
upperback -9.7942 -2.96391 0.984366
thorax -5.44736 -1.95498 0.967585
lowerneck -17.3236 0.819164 -1.70883
upperneck 40.3573 -3.13529 1.00774
head 17.9818 -2.85933 -0.327226
rclavicle -3.29858e-015 1.19271e-014
rhumerus -52.3955 -79.6233 25.0945
rradius 11.6296
rwrist 102.415
rhand -6.74277 7.80043
rfingers 7.12502
rthumb 19.1182 -21.2799
lclavicle -3.29858e-015 1.19271e-014
lhumerus 33.6156 -31.7851 24.4611
lradius 21.5965
lwrist -39.1352
lhand -0.393077 25.1955
lfingers 7.12502
lthumb 25.2138 53.5499
rfemur -53.6242 0.957524 20.8591
rtibia 48.7824
rfoot 15.4759 -30.3197
rtoes 28.1442
lfemur -21.746 -2.97367 -25.1782
ltibia 34.423
lfoot -19.1034 20.3033
ltoes 1.15852
204
root -0.634205 18.4677 19.0495 -156.744 -13.4338 -181.274
lowerback -8.31076 -1.44583 0.232434
upperback -9.75275 -3.06246 1.15514
thorax -5.47976 -2.0043 1.01803
lowerneck -17.2978 0.746059 -1.86707
upperneck 40.3596 -3.20147 1.00874
head 17.9801 -2.90652 -0.309856
rclavicle -1.92138e-014 -2.3059e-014
rhumerus -53.0598 -79.6025 26.4635
rradius 11.5851
rwrist 102.686
rhand -7.01129 8.03025
rfingers 7.12502
rthumb 18.86 -21.0754
lclavicle -1.92138e-014 -2.3059e-014
lhumerus 33.9873 -33.9578 21.5496
lradius 21.7916
lwrist -37.2956
lhand -1.1042 25.0668
lfingers 7.12502
lthumb 24.5323 53.5153
rfemur -54.3972 0.714922 21.0999
rtibia 48.8861
rfoot 14.9229 -32.0359
rtoes 32.0542
lfemur -23.4453 -3.38939 -24.9989
ltibia 34.7563
lfoot -16.697 20.1396
ltoes -2.23248
205
root -0.629884 18.5069 18.9356 -156.904 -13.5978 -181.037
lowerback -7.80954 -1.44113 0.579134
upperback -9.55511 -3.00077 1.33699
thorax -5.5513 -1.96204 1.03038
lowerneck -17.1096 0.700331 -2.19096
upperneck 40.3006 -3.23219 1.15709
head 17.9054 -2.94972 -0.184208
rclavicle -2.73391e-014 2.50469e-014
rhumerus -66.8843 -80.8472 41.1742
rradius 11.8489
rwrist 106.651
rhand -8.1804 8.91676
rfingers 7.12502
rthumb 17.7353 -20.2945
lclavicle -2.73391e-014 2.50469e-014
lhumerus 33.1129 -34.2757 20.923
lradius 21.8352
lwrist -36.6806
lhand -1.16403 25.0572
lfingers 7.12502
lthumb 24.475 53.5134
rfemur -54.4887 0.612568 21.3916
rtibia 48.7861
rfoot 13.7076 -32.8675
rtoes 33.7876
lfemur -24.2416 -3.64278 -24.847
ltibia 35.0607
lfoot -14.5998 19.7296
ltoes -5.7358
